# xmcd
#
# Track frame offsets: 
#        150
#        12538
#        36245
#        49140
#        65768
#        81608
#        95713
#        110333
#        125243
#        143423
#
# Disc length: 2202 seconds
#
# Revision: 2
# Processed by: cddbd v1.4PL0 Copyright (c) Steve Scherf et al.
# Submitted via: ExactAudioCopy v0.90b3
#
DISCID=9508980a
DTITLE=David Allan Coe - Super Hits
DYEAR=1993
DGENRE=Country
TTITLE0=Cheap Thrills
TTITLE1=You Never Even Called Me By My Name
TTITLE2=Would You Lay With Me (In A Field Of Stone)
TTITLE3=Mona Lisa Lost Her Smile
TTITLE4=If This Is Just A Game
TTITLE5=The Ride
TTITLE6=Willie, Waylon, And Me
TTITLE7=Jack Daniels If You Please
TTITLE8=Family Reunion
TTITLE9=If That Ain't Country
EXTD=
EXTT0=
EXTT1=
EXTT2=
EXTT3=
EXTT4=
EXTT5=
EXTT6=
EXTT7=
EXTT8=
EXTT9=
PLAYORDER=
